<?xml version="1.0" encoding="UTF-8" standalone="no"?><!DOCTYPE svg PUBLIC "-//W3C//DTD SVG 1.1//EN" "http://www.w3.org/Graphics/SVG/1.1/DTD/svg11.dtd"><svg width="100%" height="100%" viewBox="0 0 23 23" version="1.1" xmlns="http://www.w3.org/2000/svg" xmlns:xlink="http://www.w3.org/1999/xlink" xml:space="preserve" xmlns:serif="http://www.serif.com/" style="fill-rule:evenodd;clip-rule:evenodd;stroke-linejoin:round;stroke-miterlimit:1.41421;"><path d="M18.092,12.688c-0.811,-1.98 -1.217,-4.066 -1.217,-6.259c0,-1.381 -0.402,-2.478 -1.205,-3.29c-0.804,-0.812 -1.909,-1.302 -3.315,-1.469c0.067,-0.151 0.1,-0.306 0.1,-0.465c0,-0.334 -0.117,-0.619 -0.351,-0.853c-0.235,-0.235 -0.519,-0.352 -0.854,-0.352c-0.335,0 -0.619,0.117 -0.854,0.352c-0.234,0.234 -0.351,0.519 -0.351,0.853c0,0.159 0.033,0.314 0.1,0.465c-1.406,0.167 -2.511,0.657 -3.315,1.469c-0.803,0.812 -1.205,1.908 -1.205,3.29c0,2.193 -0.406,4.279 -1.218,6.259c-0.812,1.979 -2.013,3.643 -3.603,4.991c0,0.435 0.159,0.812 0.477,1.13c0.318,0.318 0.694,0.477 1.13,0.477l5.625,0c0,0.887 0.314,1.645 0.941,2.272c0.628,0.628 1.386,0.942 2.273,0.942c0.887,0 1.645,-0.314 2.273,-0.942c0.627,-0.627 0.941,-1.385 0.941,-2.272l5.625,0c0.435,0 0.812,-0.159 1.13,-0.477c0.318,-0.318 0.477,-0.695 0.477,-1.13c-1.59,-1.348 -2.791,-3.012 -3.604,-4.991Zm-6.842,8.807c-0.611,0 -1.132,-0.215 -1.563,-0.646c-0.431,-0.431 -0.647,-0.952 -0.647,-1.563c0,-0.134 0.067,-0.201 0.201,-0.201c0.134,0 0.201,0.067 0.201,0.201c0,0.493 0.178,0.918 0.534,1.274c0.355,0.356 0.78,0.534 1.274,0.534c0.134,0 0.201,0.067 0.201,0.201c0,0.134 -0.067,0.2 -0.201,0.2Z" style="fill:#fff;fill-rule:nonzero;"/><circle cx="11.25" cy="19.544" r="2.497" style="fill:#fff;"/></svg>