<?xml version="1.0" encoding="utf-8"?>
<!-- Generator: Adobe Illustrator 19.0.0, SVG Export Plug-In . SVG Version: 6.00 Build 0)  -->
<svg version="1.1" id="Layer_1" xmlns="http://www.w3.org/2000/svg" xmlns:xlink="http://www.w3.org/1999/xlink" x="0px" y="0px"
	 viewBox="-248 340 114 114" style="enable-background:new -248 340 114 114;" xml:space="preserve">
<style type="text/css">
	.st0{fill:#00A7F7;}
</style>
<title>icons/plus/primary-agent</title>
<desc>Created with Sketch.</desc>
<g id="icons_x2F_plus_x2F_primary-agent">
	<path id="Shape" class="st0" d="M-135.9,383.6c-1.5-1.5-3.4-2.3-5.5-2.3h-33.9v-33.9c0-2.2-0.8-4-2.3-5.5c-1.5-1.5-3.4-2.3-5.5-2.3
		h-15.6c-2.2,0-4,0.8-5.5,2.3s-2.3,3.4-2.3,5.5v33.9h-33.9c-2.2,0-4,0.8-5.5,2.3c-1.5,1.5-2.3,3.4-2.3,5.5v15.6c0,2.2,0.8,4,2.3,5.5
		c1.5,1.5,3.4,2.3,5.5,2.3h33.9v33.9c0,2.2,0.8,4,2.3,5.5c1.5,1.5,3.4,2.3,5.5,2.3h15.6c2.2,0,4-0.8,5.5-2.3
		c1.5-1.5,2.3-3.4,2.3-5.5v-33.9h33.9c2.2,0,4-0.8,5.5-2.3c1.5-1.5,2.3-3.4,2.3-5.5v-15.6C-133.6,387-134.4,385.2-135.9,383.6
		L-135.9,383.6z"/>
</g>
</svg>
