<?xml version="1.0" encoding="utf-8"?>
<!-- Generator: Adobe Illustrator 19.0.0, SVG Export Plug-In . SVG Version: 6.00 Build 0)  -->
<svg version="1.1" id="Layer_1" xmlns="http://www.w3.org/2000/svg" xmlns:xlink="http://www.w3.org/1999/xlink" x="0px" y="0px"
	 viewBox="-257 349 96 96" style="enable-background:new -257 349 96 96;" xml:space="preserve">
<style type="text/css">
	.st0{fill:#999999;}
</style>
<title>icons/close/grey</title>
<desc>Created with Sketch.</desc>
<g id="icons_x2F_close_x2F_grey">
	<path id="Shape" class="st0" d="M-186.8,397l24-24c1.5-1.5,2.3-3.4,2.3-5.5s-0.8-4-2.3-5.5l-11.1-11.1c-1.5-1.5-3.4-2.3-5.5-2.3
		c-2.2,0-4,0.8-5.5,2.3l-24,24l-24-24c-1.5-1.5-3.4-2.3-5.5-2.3c-2.2,0-4,0.8-5.5,2.3l-11.1,11.1c-1.5,1.5-2.3,3.4-2.3,5.5
		s0.8,4,2.3,5.5l24,24l-24,24c-1.5,1.5-2.3,3.4-2.3,5.5c0,2.2,0.8,4,2.3,5.5l11.1,11.1c1.5,1.5,3.4,2.3,5.5,2.3c2.2,0,4-0.8,5.5-2.3
		l24-24l24,24c1.5,1.5,3.4,2.3,5.5,2.3c2.2,0,4-0.8,5.5-2.3l11.1-11.1c1.5-1.5,2.3-3.4,2.3-5.5c0-2.2-0.8-4-2.3-5.5L-186.8,397
		L-186.8,397z"/>
</g>
</svg>
