<?xml version="1.0" encoding="utf-8"?>
<!-- Generator: Adobe Illustrator 19.0.0, SVG Export Plug-In . SVG Version: 6.00 Build 0)  -->
<svg version="1.1" id="Layer_1" xmlns="http://www.w3.org/2000/svg" xmlns:xlink="http://www.w3.org/1999/xlink" x="0px" y="0px"
	 viewBox="81 335 124 124" style="enable-background:new 81 335 124 124;" xml:space="preserve">
<style type="text/css">
	.st0{fill:#999999;}
</style>
<path class="st0" d="M88.8,355.3v-6.8c0-3.2,2.6-5.8,5.8-5.8h27.1l2.3-4.5c1-2,3-3.2,5.2-3.2h27.7c2.2,0,4.2,1.2,5.2,3.2l2.3,4.5
	h27.1c3.2,0,5.8,2.6,5.8,5.8v6.8c0,1.6-1.3,2.9-2.9,2.9H91.7C90.1,358.3,88.8,356.9,88.8,355.3z M189.5,368.9v78.5
	c0,6.4-5.2,11.6-11.6,11.6h-69.8c-6.4,0-11.6-5.2-11.6-11.6v-78.5c0-1.6,1.3-2.9,2.9-2.9h87.2C188.2,366,189.5,367.3,189.5,368.9z
	 M123.6,385.4c0-2.1-1.7-3.9-3.9-3.9s-3.9,1.7-3.9,3.9v54.3c0,2.1,1.7,3.9,3.9,3.9s3.9-1.7,3.9-3.9V385.4z M146.9,385.4
	c0-2.1-1.7-3.9-3.9-3.9s-3.9,1.7-3.9,3.9v54.3c0,2.1,1.7,3.9,3.9,3.9s3.9-1.7,3.9-3.9V385.4z M170.1,385.4c0-2.1-1.7-3.9-3.9-3.9
	s-3.9,1.7-3.9,3.9v54.3c0,2.1,1.7,3.9,3.9,3.9s3.9-1.7,3.9-3.9V385.4z"/>
</svg>
