<?xml version="1.0" encoding="utf-8"?>
<!-- Generator: Adobe Illustrator 19.0.0, SVG Export Plug-In . SVG Version: 6.00 Build 0)  -->
<svg version="1.1" id="Layer_1" xmlns="http://www.w3.org/2000/svg" xmlns:xlink="http://www.w3.org/1999/xlink" x="0px" y="0px"
	 viewBox="-243 335 124 124" style="enable-background:new -243 335 124 124;" xml:space="preserve">
<style type="text/css">
	.st0{fill:#999999;}
</style>
<title>icons/edit/Grey</title>
<desc>Created with Sketch.</desc>
<g id="icons_x2F_edit_x2F_Grey">
	<g id="Group">
		<path id="Shape" class="st0" d="M-242.7,424.8v33.9h33.9l67.8-67.8l-33.9-33.9L-242.7,424.8L-242.7,424.8z M-213.1,448.3
			L-213.1,448.3l-8.7,0v-10.4h-10.4v-8.7l7.4-7.4l19.1,19.1L-213.1,448.3L-213.1,448.3z M-172.3,370.9c1.2,0,1.8,0.6,1.8,1.8
			c0,0.5-0.2,1-0.6,1.4l-44.2,44.2c-0.4,0.4-0.8,0.6-1.4,0.6c-1.2,0-1.8-0.6-1.8-1.8c0-0.5,0.2-1,0.6-1.4l44.2-44.2
			C-173.3,371.1-172.9,370.9-172.3,370.9L-172.3,370.9z"/>
		<path id="Shape_1_" class="st0" d="M-122.3,357.4l-19.1-19.1c-2.1-2.1-4.5-3.1-7.4-3.1c-2.9,0-5.4,1-7.3,3.1l-13.5,13.4l33.9,33.9
			l13.5-13.5c2-2,3-4.5,3-7.3C-119.3,362-120.3,359.6-122.3,357.4L-122.3,357.4z"/>
	</g>
</g>
</svg>
