<?xml version="1.0" encoding="utf-8"?>
<!-- Generator: Adobe Illustrator 19.0.0, SVG Export Plug-In . SVG Version: 6.00 Build 0)  -->
<svg version="1.1" id="Layer_1" xmlns="http://www.w3.org/2000/svg" xmlns:xlink="http://www.w3.org/1999/xlink" x="0px" y="0px"
	 viewBox="-242 345 126 104" style="enable-background:new -242 345 126 104;" xml:space="preserve">
<style type="text/css">
	.st0{fill:#FFFFFF;}
</style>
<title>icons/menu/White</title>
<desc>Created with Sketch.</desc>
<g id="icons_x2F_menu_x2F_White">
	<g id="Group" transform="translate(0.000000, -1.000000)">
		<path id="Shape" class="st0" d="M-121.6,429.3h-114.7c-1.4,0-2.6,0.5-3.7,1.5c-1,1-1.5,2.3-1.5,3.7v10.4c0,1.4,0.5,2.6,1.5,3.7
			c1,1,2.3,1.5,3.7,1.5h114.7c1.4,0,2.6-0.5,3.7-1.5c1-1,1.5-2.3,1.5-3.7v-10.4c0-1.4-0.5-2.6-1.5-3.7
			C-119,429.8-120.2,429.3-121.6,429.3L-121.6,429.3z"/>
		<path id="Shape_1_" class="st0" d="M-118,347.4c-1-1-2.3-1.5-3.7-1.5h-114.7c-1.4,0-2.6,0.5-3.7,1.5s-1.5,2.3-1.5,3.7v10.4
			c0,1.4,0.5,2.6,1.5,3.7c1,1,2.3,1.5,3.7,1.5h114.7c1.4,0,2.6-0.5,3.7-1.5c1-1,1.5-2.3,1.5-3.7v-10.4
			C-116.4,349.7-116.9,348.4-118,347.4L-118,347.4z"/>
		<path id="Shape_2_" class="st0" d="M-121.6,387.6h-114.7c-1.4,0-2.6,0.5-3.7,1.5c-1,1-1.5,2.3-1.5,3.7v10.4c0,1.4,0.5,2.6,1.5,3.7
			c1,1,2.3,1.5,3.7,1.5h114.7c1.4,0,2.6-0.5,3.7-1.5c1-1,1.5-2.3,1.5-3.7v-10.4c0-1.4-0.5-2.6-1.5-3.7
			C-119,388.1-120.2,387.6-121.6,387.6L-121.6,387.6z"/>
	</g>
</g>
</svg>
