<?xml version="1.0" encoding="utf-8"?>
<!-- Generator: Adobe Illustrator 19.0.0, SVG Export Plug-In . SVG Version: 6.00 Build 0)  -->
<svg version="1.1" id="Layer_1" xmlns="http://www.w3.org/2000/svg" xmlns:xlink="http://www.w3.org/1999/xlink" x="0px" y="0px"
	 viewBox="-232 324 146 146" style="enable-background:new -232 324 146 146;" xml:space="preserve">
<style type="text/css">
	.st0{fill:#F27F42;}
</style>
<title>icons/message/primary-student</title>
<desc>Created with Sketch.</desc>
<g id="icons_x2F_message_x2F_primary-student">
	<path id="Shape" class="st0" d="M-95.8,360.4c-6.5-8-15.4-14.3-26.6-19c-11.2-4.6-23.4-7-36.7-7s-25.5,2.3-36.7,7
		c-11.2,4.6-20,11-26.6,19c-6.5,8-9.8,16.7-9.8,26.2c0,8.1,2.5,15.8,7.4,22.9s11.6,13.1,20.2,17.9c-0.6,2.2-1.3,4.2-2.1,6.2
		c-0.8,2-1.5,3.6-2.2,4.8c-0.7,1.2-1.5,2.6-2.6,4.2c-1.1,1.5-2,2.6-2.5,3.2c-0.6,0.6-1.5,1.7-2.8,3.1c-1.3,1.4-2.1,2.4-2.5,2.8
		c-0.1,0-0.3,0.3-0.7,0.7c-0.4,0.5-0.6,0.7-0.6,0.7l-0.5,0.7c-0.3,0.4-0.4,0.7-0.4,0.8c0,0.1,0,0.4-0.2,0.8c-0.1,0.4-0.1,0.8,0,1
		v0.1c0.2,0.9,0.7,1.7,1.3,2.2c0.7,0.6,1.4,0.9,2.2,0.9h0.4c3.5-0.4,6.6-1,9.3-1.8c14.2-3.6,26.7-10.2,37.5-19.7
		c4.1,0.4,8,0.7,11.8,0.7c13.3,0,25.5-2.3,36.7-7c11.2-4.6,20-11,26.6-19c6.5-8,9.8-16.7,9.8-26.2C-86,377.1-89.3,368.4-95.8,360.4
		L-95.8,360.4z"/>
</g>
</svg>
