<?xml version="1.0" encoding="UTF-8"?>
<svg width="126px" height="136px" viewBox="0 0 126 136" version="1.1" xmlns="http://www.w3.org/2000/svg" xmlns:xlink="http://www.w3.org/1999/xlink">
    <!-- Generator: Sketch 51.1 (57501) - http://www.bohemiancoding.com/sketch -->
    <title>icons/thumb-up/grey</title>
    <desc>Created with Sketch.</desc>
    <defs></defs>
    <g id="icons/thumb-up/grey" stroke="none" stroke-width="1" fill="none" fill-rule="evenodd">
        <path d="M121.579,75.984 C124.241,71.964 125.57,67.538 125.57,62.704 C125.57,57.109 123.508,52.249 119.381,48.117 C115.252,43.989 110.364,41.926 104.715,41.926 L90.376,41.926 C92.982,36.549 94.287,31.334 94.287,26.283 C94.287,19.928 93.335,14.877 91.435,11.129 C89.533,7.38 86.763,4.624 83.123,2.858 C79.483,1.093 75.383,0.211 70.821,0.211 C68.05,0.211 65.606,1.216 63.488,3.226 C61.153,5.507 59.469,8.441 58.437,12.026 C57.405,15.61 56.576,19.046 55.952,22.332 C55.328,25.618 54.363,27.94 53.06,29.298 C50.398,32.177 47.492,35.654 44.342,39.727 C38.856,46.842 35.135,51.052 33.18,52.356 L10.857,52.356 C7.978,52.356 5.52,53.376 3.483,55.411 C1.447,57.448 0.428,59.906 0.428,62.785 L0.428,114.928 C0.428,117.807 1.446,120.264 3.483,122.301 C5.521,124.338 7.978,125.358 10.857,125.358 L34.32,125.358 C35.515,125.358 39.262,126.444 45.563,128.616 C52.244,130.952 58.124,132.731 63.202,133.953 C68.281,135.176 73.427,135.787 78.642,135.787 L86.217,135.787 L89.152,135.787 C96.81,135.787 102.974,133.599 107.646,129.227 C112.316,124.854 114.625,118.893 114.572,111.343 C117.83,107.16 119.46,102.326 119.46,96.841 C119.46,95.647 119.379,94.479 119.216,93.337 C121.279,89.699 122.313,85.788 122.313,81.606 C122.312,79.65 122.068,77.775 121.579,75.984 L121.579,75.984 Z M19.738,113.381 C18.706,114.412 17.484,114.929 16.072,114.929 C14.659,114.929 13.437,114.412 12.405,113.381 C11.373,112.35 10.857,111.127 10.857,109.714 C10.857,108.302 11.372,107.08 12.405,106.048 C13.438,105.016 14.659,104.5 16.072,104.5 C17.484,104.5 18.706,105.016 19.738,106.048 C20.77,107.08 21.286,108.302 21.286,109.714 C21.286,111.127 20.77,112.35 19.738,113.381 L19.738,113.381 Z M113.393,69.388 C112.225,71.887 110.772,73.163 109.034,73.217 C109.848,74.141 110.528,75.431 111.071,77.087 C111.614,78.744 111.884,80.251 111.884,81.609 C111.884,85.355 110.446,88.588 107.567,91.303 C108.546,93.04 109.034,94.915 109.034,96.924 C109.034,98.933 108.559,100.93 107.608,102.912 C106.658,104.893 105.368,106.319 103.739,107.188 C104.01,108.817 104.145,110.338 104.145,111.75 C104.145,120.82 98.93,125.355 88.501,125.355 L78.645,125.355 C71.528,125.355 62.241,123.374 50.78,119.408 C50.508,119.3 49.721,119.014 48.417,118.553 C47.113,118.092 46.149,117.752 45.524,117.535 C44.899,117.316 43.949,117.004 42.672,116.597 C41.395,116.19 40.364,115.891 39.576,115.701 C38.789,115.512 37.892,115.335 36.888,115.172 C35.884,115.009 35.028,114.928 34.322,114.928 L31.715,114.928 L31.715,62.787 L34.322,62.787 C35.191,62.787 36.155,62.542 37.214,62.054 C38.273,61.565 39.36,60.832 40.473,59.854 C41.587,58.876 42.632,57.912 43.61,56.961 C44.588,56.011 45.674,54.816 46.869,53.377 C48.064,51.937 49.001,50.783 49.68,49.914 C50.359,49.045 51.214,47.931 52.246,46.573 C53.278,45.216 53.903,44.401 54.12,44.129 C57.107,40.436 59.198,37.965 60.393,36.715 C62.62,34.38 64.236,31.406 65.24,27.794 C66.246,24.181 67.074,20.773 67.724,17.569 C68.376,14.364 69.409,12.055 70.822,10.643 C76.036,10.643 79.513,11.919 81.25,14.472 C82.988,17.025 83.857,20.963 83.857,26.286 C83.857,29.49 82.552,33.849 79.945,39.362 C77.339,44.875 76.036,49.207 76.036,52.357 L104.714,52.357 C107.432,52.357 109.848,53.402 111.966,55.494 C114.084,57.585 115.145,60.015 115.145,62.786 C115.145,64.687 114.561,66.887 113.393,69.388 L113.393,69.388 Z" id="Shape" fill="#999999"></path>
    </g>
</svg>