<?xml version="1.0" encoding="UTF-8"?>
<svg width="114px" height="126px" viewBox="0 0 114 126" version="1.1" xmlns="http://www.w3.org/2000/svg" xmlns:xlink="http://www.w3.org/1999/xlink">
    <!-- Generator: Sketch 51.1 (57501) - http://www.bohemiancoding.com/sketch -->
    <title>icons/user/agent-primary</title>
    <desc>Created with Sketch.</desc>
    <defs></defs>
    <g id="icons/user/agent-primary" stroke="none" stroke-width="1" fill="none" fill-rule="evenodd">
        <g id="Group" transform="translate(-1.000000, 0.000000)" fill="#00A7F7">
            <path d="M57.999,63 C66.637,63 74.01,59.944 80.119,53.834 C86.23,47.724 89.285,40.351 89.285,31.714 C89.285,23.078 86.23,15.705 80.119,9.594 C74.009,3.484 66.635,0.429 57.999,0.429 C49.363,0.429 41.989,3.484 35.879,9.594 C29.768,15.705 26.713,23.078 26.713,31.714 C26.713,40.351 29.768,47.724 35.879,53.834 C41.99,59.944 49.363,63 57.999,63 L57.999,63 Z" id="Shape"></path>
            <path d="M115.07,96.037 C114.879,93.294 114.499,90.334 113.929,87.156 C113.359,83.978 112.638,81.032 111.769,78.316 C110.9,75.601 109.732,72.953 108.265,70.373 C106.799,67.793 105.115,65.593 103.213,63.773 C101.311,61.953 98.99,60.501 96.248,59.415 C93.504,58.329 90.476,57.785 87.163,57.785 C86.674,57.785 85.533,58.369 83.741,59.537 C81.949,60.705 79.926,62.009 77.672,63.448 C75.418,64.886 72.484,66.191 68.873,67.357 C65.261,68.525 61.636,69.109 57.996,69.109 C54.357,69.109 50.732,68.525 47.12,67.357 C43.509,66.191 40.575,64.886 38.321,63.448 C36.067,62.009 34.044,60.705 32.252,59.537 C30.459,58.369 29.319,57.785 28.83,57.785 C25.517,57.785 22.489,58.329 19.746,59.415 C17.003,60.501 14.681,61.954 12.78,63.773 C10.879,65.593 9.195,67.793 7.729,70.373 C6.263,72.953 5.095,75.602 4.226,78.316 C3.357,81.032 2.637,83.978 2.067,87.156 C1.496,90.334 1.116,93.293 0.926,96.037 C0.736,98.781 0.641,101.591 0.641,104.47 C0.641,110.987 2.624,116.134 6.589,119.909 C10.554,123.683 15.823,125.57 22.395,125.57 L93.603,125.57 C100.175,125.57 105.443,123.683 109.409,119.909 C113.375,116.134 115.357,110.988 115.357,104.47 C115.357,101.591 115.262,98.78 115.07,96.037 L115.07,96.037 Z" id="Shape"></path>
        </g>
    </g>
</svg>